<svg width="24" height="24" viewBox="0 0 24 24" fill="none" xmlns="http://www.w3.org/2000/svg">
<path d="M12 11C11.8022 11 11.6088 11.0586 11.4444 11.1685C11.28 11.2784 11.1518 11.4346 11.0761 11.6173C11.0004 11.8 10.9806 12.0011 11.0192 12.1951C11.0578 12.3891 11.153 12.5673 11.2929 12.7071C11.4327 12.847 11.6109 12.9422 11.8049 12.9808C11.9989 13.0194 12.1999 12.9996 12.3827 12.9239C12.5654 12.8482 12.7216 12.72 12.8314 12.5556C12.9413 12.3911 13 12.1978 13 12C13 11.7348 12.8946 11.4804 12.7071 11.2929C12.5195 11.1054 12.2652 11 12 11ZM19.62 12L19.73 11.86C21.08 10 21.4 8.29 20.66 7C19.92 5.71 18.26 5.14 16 5.37H15.82C14.91 3.3 13.56 2 12 2C10.44 2 9.08997 3.3 8.18997 5.4L7.99997 5.37C5.73997 5.14 4.07997 5.71 3.33997 7C2.59997 8.29 2.91997 10 4.26997 11.86L4.37997 12L4.26997 12.14C2.91997 14 2.59997 15.71 3.33997 17C3.99997 18.1 5.26997 18.68 6.99997 18.68C7.30997 18.68 7.62997 18.68 7.99997 18.63H8.17997C9.08997 20.7 10.44 22 12 22C13.56 22 14.91 20.7 15.81 18.6H15.99C16.33 18.6 16.65 18.65 16.99 18.65C18.76 18.65 20.06 18.07 20.69 16.97C21.43 15.68 21.11 13.97 19.76 12.11L19.62 12ZM5.06997 8C5.31997 7.56 6.06997 7.32 7.06997 7.32H7.55997C7.40327 7.93517 7.28636 8.5598 7.20997 9.19C6.70051 9.57537 6.2162 9.99288 5.75997 10.44C4.99997 9.44 4.77997 8.5 5.06997 8ZM5.06997 16C4.77997 15.5 5.06997 14.56 5.73997 13.53C6.19619 13.9771 6.68051 14.3946 7.18997 14.78C7.26637 15.4135 7.38328 16.0415 7.53997 16.66C6.29997 16.74 5.35997 16.5 5.06997 16ZM12 4C12.56 4 13.23 4.66 13.8 5.83C13.189 6.00731 12.5881 6.21762 12 6.46C11.4118 6.21762 10.8109 6.00731 10.2 5.83C10.77 4.66 11.44 4 12 4ZM12 20C11.44 20 10.77 19.34 10.2 18.17C10.8109 17.9927 11.4118 17.7824 12 17.54C12.5881 17.7824 13.189 17.9927 13.8 18.17C13.23 19.34 12.56 20 12 20ZM14.93 13.69C14.47 14.01 14 14.31 13.5 14.6C13 14.89 12.5 15.15 12 15.38C11.5 15.1467 11 14.8867 10.5 14.6C9.99997 14.31 9.49997 14.01 9.06997 13.69C8.99997 13.15 8.99997 12.59 8.99997 12C8.99997 11.41 8.99997 10.85 9.06997 10.31C9.52997 9.99 9.99997 9.69 10.5 9.4C11 9.11 11.5 8.85 12 8.62C12.5 8.85333 13 9.11333 13.5 9.4C14 9.69 14.5 9.99 14.93 10.31C14.93 10.85 15 11.41 15 12C15 12.59 15 13.15 14.93 13.69ZM18.93 16C18.64 16.5 17.7 16.75 16.46 16.66C16.6167 16.0415 16.7336 15.4135 16.81 14.78C17.3194 14.3946 17.8037 13.9771 18.26 13.53C19 14.56 19.22 15.5 18.93 16ZM18.26 10.47C17.8037 10.0229 17.3194 9.60537 16.81 9.22C16.7336 8.5898 16.6167 7.96517 16.46 7.35H16.95C17.95 7.35 18.68 7.59 18.95 8.03C19.22 8.47 19 9.44 18.26 10.47Z" fill="#333333"/>
</svg>
